<?xml version="1.0" encoding="UTF-8" standalone="no"?><!DOCTYPE svg PUBLIC "-//W3C//DTD SVG 1.1//EN" "http://www.w3.org/Graphics/SVG/1.1/DTD/svg11.dtd">
<svg width="100%" height="100%" viewBox="0 0 47 342" version="1.1"
    xmlns="http://www.w3.org/2000/svg"
    xmlns:xlink="http://www.w3.org/1999/xlink" xml:space="preserve"
    xmlns:serif="http://www.serif.com/" style="fill-rule:evenodd;clip-rule:evenodd;stroke-linecap:round;stroke-linejoin:round;stroke-miterlimit:1.5;">
    <g>
        <path d="M23.188,4.167c-0,43.925 0.016,87.779 -0.059,131.637c-0.058,34.104 -0.212,67.842 -0.25,102.017c-0.033,32.908 0.017,65.666 0.021,98.579" style="fill:none;stroke:#d2d2d2;stroke-width:8.33px;"/>
        <path d="M4.167,314.971c2.458,2.933 4.929,5.85 7.325,8.829c1.862,2.317 3.633,4.675 5.516,6.979c1.813,2.225 3.692,4.375 5.538,6.575" style="fill:none;stroke:#d2d2d2;stroke-width:8.33px;"/>
        <path d="M42.217,314.392c-2.55,3.033 -5.08,6.079 -7.684,9.062c-2.021,2.317 -4.096,4.554 -6.104,6.892c-1.937,2.254 -3.8,4.55 -5.708,6.829" style="fill:none;stroke:#d2d2d2;stroke-width:8.33px;"/>
    </g>
</svg>