<svg xmlns="http://www.w3.org/2000/svg" viewBox="-2 -2 22.01 22.01" class="floating-block__icon">
    <path class="phone-path" fill="#fff" d="M16.81 12.63l-2.68-1.87a1.9 1.9 0 00-2.57.13l-.7.69a.46.46 0 01-.63.11 17.8 17.8 0 01-2.15-1.86 13.37 13.37 0 01-1.73-2 .46.46 0 01.08-.64l.69-.7a1.91 1.91 0 00.14-2.56L5.38 1.18A2.29 2.29 0 003.53 0a2.67 2.67 0 00-1.8.8l-.22.19a4.4 4.4 0 00-1.5 3.63c0 2.64 1.6 5.83 4.57 8.81S10.72 18 13.39 18A4.38 4.38 0 0017 16.51a2.19 2.19 0 01.2-.22 2.81 2.81 0 00.8-1.81 2.29 2.29 0 00-1.19-1.85zm-.78 2.67a1.15 1.15 0 00-.14.19 3.36 3.36 0 01-2.51 1.07c-2.33 0-5.29-1.72-7.71-4.13S1.38 6.93 1.46 4.6a3.21 3.21 0 011.08-2.48.75.75 0 01.17-.14 1.26 1.26 0 01.82-.36.76.76 0 01.68.38l1.76 2.62a.66.66 0 01-.09.92l-.77.78a1.46 1.46 0 00-.16 2 21.13 21.13 0 002.16 2.46 26.06 26.06 0 002.55 2.26 1.46 1.46 0 002-.16l.77-.77a.66.66 0 01.92-.09l2.61 1.74a.78.78 0 01.39.69 1.31 1.31 0 01-.32.85z"></path>
    <path class="inner-bracket-path" fill="none" opacity="0" stroke="#fff" stroke-linecap="round" stroke-linejoin="round" d="M9.14 5a5 5 0 014 3.95"></path>
    <path class="outer-bracket-path" fill="none" opacity="0" stroke="#fff" stroke-linecap="round" stroke-linejoin="round" d="M9.14 1a9 9 0 018 7.94"></path>
</svg>